<mxfile host="app.diagrams.net" agent="Mozilla/5.0 (Windows NT 10.0; Win64; x64) AppleWebKit/537.36 (KHTML, like Gecko) Chrome/129.0.0.0 Safari/537.36" version="24.7.17">
  <diagram name="1 oldal" id="rVcbS3SOHvbKNAruKiKu">
    <mxGraphModel dx="1671" dy="473" grid="1" gridSize="10" guides="1" tooltips="1" connect="1" arrows="1" fold="1" page="1" pageScale="1" pageWidth="827" pageHeight="1169" math="0" shadow="0">
      <root>
        <mxCell id="0" />
        <mxCell id="1" parent="0" />
        <mxCell id="mJlbt22K1hkp6w-ttU3_-1" value="CMU4ZN_sema" style="ellipse;whiteSpace=wrap;html=1;" vertex="1" parent="1">
          <mxGeometry x="1370" y="20" width="120" height="80" as="geometry" />
        </mxCell>
        <mxCell id="mJlbt22K1hkp6w-ttU3_-4" value="" style="ellipse;whiteSpace=wrap;html=1;" vertex="1" parent="1">
          <mxGeometry x="20" y="190" width="120" height="80" as="geometry" />
        </mxCell>
        <mxCell id="mJlbt22K1hkp6w-ttU3_-5" value="Étterem" style="ellipse;whiteSpace=wrap;html=1;" vertex="1" parent="1">
          <mxGeometry x="25" y="195" width="110" height="70" as="geometry" />
        </mxCell>
        <mxCell id="mJlbt22K1hkp6w-ttU3_-6" value="név" style="ellipse;whiteSpace=wrap;html=1;" vertex="1" parent="1">
          <mxGeometry x="-235" y="340" width="120" height="80" as="geometry" />
        </mxCell>
        <mxCell id="mJlbt22K1hkp6w-ttU3_-8" value="cím" style="ellipse;whiteSpace=wrap;html=1;" vertex="1" parent="1">
          <mxGeometry x="20" y="340" width="120" height="80" as="geometry" />
        </mxCell>
        <mxCell id="mJlbt22K1hkp6w-ttU3_-9" value="csillag" style="ellipse;whiteSpace=wrap;html=1;" vertex="1" parent="1">
          <mxGeometry x="275" y="340" width="120" height="80" as="geometry" />
        </mxCell>
        <mxCell id="mJlbt22K1hkp6w-ttU3_-10" value="város" style="ellipse;whiteSpace=wrap;html=1;" vertex="1" parent="1">
          <mxGeometry x="-115" y="520" width="120" height="80" as="geometry" />
        </mxCell>
        <mxCell id="mJlbt22K1hkp6w-ttU3_-11" value="utca" style="ellipse;whiteSpace=wrap;html=1;" vertex="1" parent="1">
          <mxGeometry x="20" y="520" width="120" height="80" as="geometry" />
        </mxCell>
        <mxCell id="mJlbt22K1hkp6w-ttU3_-12" value="házszám" style="ellipse;whiteSpace=wrap;html=1;" vertex="1" parent="1">
          <mxGeometry x="155" y="520" width="120" height="80" as="geometry" />
        </mxCell>
        <mxCell id="mJlbt22K1hkp6w-ttU3_-13" value="EKOD" style="rhombus;whiteSpace=wrap;html=1;" vertex="1" parent="1">
          <mxGeometry x="-300" y="250" width="80" height="80" as="geometry" />
        </mxCell>
        <mxCell id="mJlbt22K1hkp6w-ttU3_-24" value="" style="endArrow=none;html=1;rounded=0;exitX=0.75;exitY=0.063;exitDx=0;exitDy=0;exitPerimeter=0;entryX=0;entryY=0.5;entryDx=0;entryDy=0;" edge="1" parent="1" source="mJlbt22K1hkp6w-ttU3_-4" target="mJlbt22K1hkp6w-ttU3_-1">
          <mxGeometry width="50" height="50" relative="1" as="geometry">
            <mxPoint x="340" y="350" as="sourcePoint" />
            <mxPoint x="390" y="300" as="targetPoint" />
          </mxGeometry>
        </mxCell>
        <mxCell id="mJlbt22K1hkp6w-ttU3_-26" value="" style="endArrow=none;html=1;rounded=0;entryX=0.5;entryY=1;entryDx=0;entryDy=0;exitX=0.5;exitY=0;exitDx=0;exitDy=0;" edge="1" parent="1" source="mJlbt22K1hkp6w-ttU3_-6" target="mJlbt22K1hkp6w-ttU3_-4">
          <mxGeometry width="50" height="50" relative="1" as="geometry">
            <mxPoint x="340" y="450" as="sourcePoint" />
            <mxPoint x="390" y="400" as="targetPoint" />
          </mxGeometry>
        </mxCell>
        <mxCell id="mJlbt22K1hkp6w-ttU3_-27" value="" style="endArrow=none;html=1;rounded=0;exitX=0.5;exitY=0;exitDx=0;exitDy=0;" edge="1" parent="1" source="mJlbt22K1hkp6w-ttU3_-8">
          <mxGeometry width="50" height="50" relative="1" as="geometry">
            <mxPoint x="340" y="450" as="sourcePoint" />
            <mxPoint x="80" y="270" as="targetPoint" />
          </mxGeometry>
        </mxCell>
        <mxCell id="mJlbt22K1hkp6w-ttU3_-28" value="" style="endArrow=none;html=1;rounded=0;entryX=0.5;entryY=1;entryDx=0;entryDy=0;exitX=0.5;exitY=0;exitDx=0;exitDy=0;" edge="1" parent="1" source="mJlbt22K1hkp6w-ttU3_-9" target="mJlbt22K1hkp6w-ttU3_-4">
          <mxGeometry width="50" height="50" relative="1" as="geometry">
            <mxPoint x="340" y="450" as="sourcePoint" />
            <mxPoint x="390" y="400" as="targetPoint" />
          </mxGeometry>
        </mxCell>
        <mxCell id="mJlbt22K1hkp6w-ttU3_-29" value="" style="endArrow=none;html=1;rounded=0;exitX=0.5;exitY=1;exitDx=0;exitDy=0;entryX=0.5;entryY=0;entryDx=0;entryDy=0;" edge="1" parent="1" source="mJlbt22K1hkp6w-ttU3_-8" target="mJlbt22K1hkp6w-ttU3_-10">
          <mxGeometry width="50" height="50" relative="1" as="geometry">
            <mxPoint x="340" y="450" as="sourcePoint" />
            <mxPoint x="390" y="400" as="targetPoint" />
          </mxGeometry>
        </mxCell>
        <mxCell id="mJlbt22K1hkp6w-ttU3_-30" value="" style="endArrow=none;html=1;rounded=0;entryX=0.5;entryY=1;entryDx=0;entryDy=0;exitX=0.5;exitY=0;exitDx=0;exitDy=0;" edge="1" parent="1" source="mJlbt22K1hkp6w-ttU3_-11" target="mJlbt22K1hkp6w-ttU3_-8">
          <mxGeometry width="50" height="50" relative="1" as="geometry">
            <mxPoint x="340" y="450" as="sourcePoint" />
            <mxPoint x="390" y="400" as="targetPoint" />
          </mxGeometry>
        </mxCell>
        <mxCell id="mJlbt22K1hkp6w-ttU3_-31" value="" style="endArrow=none;html=1;rounded=0;entryX=0.5;entryY=1;entryDx=0;entryDy=0;exitX=0.5;exitY=0;exitDx=0;exitDy=0;" edge="1" parent="1" source="mJlbt22K1hkp6w-ttU3_-12" target="mJlbt22K1hkp6w-ttU3_-8">
          <mxGeometry width="50" height="50" relative="1" as="geometry">
            <mxPoint x="340" y="450" as="sourcePoint" />
            <mxPoint x="390" y="400" as="targetPoint" />
          </mxGeometry>
        </mxCell>
        <mxCell id="mJlbt22K1hkp6w-ttU3_-32" value="" style="endArrow=none;html=1;rounded=0;entryX=0;entryY=0.5;entryDx=0;entryDy=0;exitX=0.5;exitY=0;exitDx=0;exitDy=0;" edge="1" parent="1" source="mJlbt22K1hkp6w-ttU3_-13" target="mJlbt22K1hkp6w-ttU3_-4">
          <mxGeometry width="50" height="50" relative="1" as="geometry">
            <mxPoint x="340" y="350" as="sourcePoint" />
            <mxPoint x="390" y="300" as="targetPoint" />
          </mxGeometry>
        </mxCell>
        <mxCell id="mJlbt22K1hkp6w-ttU3_-35" value="" style="ellipse;whiteSpace=wrap;html=1;" vertex="1" parent="1">
          <mxGeometry x="690" y="175" width="120" height="80" as="geometry" />
        </mxCell>
        <mxCell id="mJlbt22K1hkp6w-ttU3_-36" value="Vendég" style="ellipse;whiteSpace=wrap;html=1;" vertex="1" parent="1">
          <mxGeometry x="695" y="180" width="110" height="70" as="geometry" />
        </mxCell>
        <mxCell id="mJlbt22K1hkp6w-ttU3_-37" value="név" style="ellipse;whiteSpace=wrap;html=1;" vertex="1" parent="1">
          <mxGeometry x="470" y="315" width="120" height="80" as="geometry" />
        </mxCell>
        <mxCell id="mJlbt22K1hkp6w-ttU3_-38" value="cím" style="ellipse;whiteSpace=wrap;html=1;" vertex="1" parent="1">
          <mxGeometry x="690" y="325" width="120" height="80" as="geometry" />
        </mxCell>
        <mxCell id="mJlbt22K1hkp6w-ttU3_-39" value="eletkor" style="ellipse;whiteSpace=wrap;html=1;" vertex="1" parent="1">
          <mxGeometry x="900" y="315" width="120" height="80" as="geometry" />
        </mxCell>
        <mxCell id="mJlbt22K1hkp6w-ttU3_-40" value="város" style="ellipse;whiteSpace=wrap;html=1;" vertex="1" parent="1">
          <mxGeometry x="555" y="505" width="120" height="80" as="geometry" />
        </mxCell>
        <mxCell id="mJlbt22K1hkp6w-ttU3_-41" value="utca" style="ellipse;whiteSpace=wrap;html=1;" vertex="1" parent="1">
          <mxGeometry x="690" y="505" width="120" height="80" as="geometry" />
        </mxCell>
        <mxCell id="mJlbt22K1hkp6w-ttU3_-42" value="házszám" style="ellipse;whiteSpace=wrap;html=1;" vertex="1" parent="1">
          <mxGeometry x="825" y="505" width="120" height="80" as="geometry" />
        </mxCell>
        <mxCell id="mJlbt22K1hkp6w-ttU3_-177" style="edgeStyle=orthogonalEdgeStyle;rounded=0;orthogonalLoop=1;jettySize=auto;html=1;exitX=0.5;exitY=1;exitDx=0;exitDy=0;entryX=0.5;entryY=1;entryDx=0;entryDy=0;curved=0;dashed=1;" edge="1" parent="1" source="mJlbt22K1hkp6w-ttU3_-43" target="mJlbt22K1hkp6w-ttU3_-13">
          <mxGeometry relative="1" as="geometry">
            <mxPoint y="372.3076923076923" as="targetPoint" />
            <Array as="points">
              <mxPoint x="410" y="800" />
              <mxPoint x="-260" y="800" />
            </Array>
          </mxGeometry>
        </mxCell>
        <mxCell id="mJlbt22K1hkp6w-ttU3_-43" value="VKOD" style="rhombus;whiteSpace=wrap;html=1;" vertex="1" parent="1">
          <mxGeometry x="370" y="235" width="80" height="80" as="geometry" />
        </mxCell>
        <mxCell id="mJlbt22K1hkp6w-ttU3_-44" value="" style="endArrow=none;html=1;rounded=0;entryX=0.5;entryY=1;entryDx=0;entryDy=0;exitX=0.5;exitY=0;exitDx=0;exitDy=0;" edge="1" parent="1" source="mJlbt22K1hkp6w-ttU3_-37" target="mJlbt22K1hkp6w-ttU3_-35">
          <mxGeometry width="50" height="50" relative="1" as="geometry">
            <mxPoint x="1010" y="435" as="sourcePoint" />
            <mxPoint x="1060" y="385" as="targetPoint" />
          </mxGeometry>
        </mxCell>
        <mxCell id="mJlbt22K1hkp6w-ttU3_-45" value="" style="endArrow=none;html=1;rounded=0;exitX=0.5;exitY=0;exitDx=0;exitDy=0;" edge="1" parent="1" source="mJlbt22K1hkp6w-ttU3_-38">
          <mxGeometry width="50" height="50" relative="1" as="geometry">
            <mxPoint x="1010" y="435" as="sourcePoint" />
            <mxPoint x="750" y="255" as="targetPoint" />
          </mxGeometry>
        </mxCell>
        <mxCell id="mJlbt22K1hkp6w-ttU3_-46" value="" style="endArrow=none;html=1;rounded=0;entryX=0.5;entryY=1;entryDx=0;entryDy=0;exitX=0.5;exitY=0;exitDx=0;exitDy=0;" edge="1" parent="1" source="mJlbt22K1hkp6w-ttU3_-39" target="mJlbt22K1hkp6w-ttU3_-35">
          <mxGeometry width="50" height="50" relative="1" as="geometry">
            <mxPoint x="1010" y="435" as="sourcePoint" />
            <mxPoint x="1060" y="385" as="targetPoint" />
          </mxGeometry>
        </mxCell>
        <mxCell id="mJlbt22K1hkp6w-ttU3_-47" value="" style="endArrow=none;html=1;rounded=0;exitX=0.5;exitY=1;exitDx=0;exitDy=0;entryX=0.5;entryY=0;entryDx=0;entryDy=0;" edge="1" parent="1" source="mJlbt22K1hkp6w-ttU3_-38" target="mJlbt22K1hkp6w-ttU3_-40">
          <mxGeometry width="50" height="50" relative="1" as="geometry">
            <mxPoint x="1010" y="435" as="sourcePoint" />
            <mxPoint x="1060" y="385" as="targetPoint" />
          </mxGeometry>
        </mxCell>
        <mxCell id="mJlbt22K1hkp6w-ttU3_-48" value="" style="endArrow=none;html=1;rounded=0;entryX=0.5;entryY=1;entryDx=0;entryDy=0;exitX=0.5;exitY=0;exitDx=0;exitDy=0;" edge="1" parent="1" source="mJlbt22K1hkp6w-ttU3_-41" target="mJlbt22K1hkp6w-ttU3_-38">
          <mxGeometry width="50" height="50" relative="1" as="geometry">
            <mxPoint x="1010" y="435" as="sourcePoint" />
            <mxPoint x="1060" y="385" as="targetPoint" />
          </mxGeometry>
        </mxCell>
        <mxCell id="mJlbt22K1hkp6w-ttU3_-49" value="" style="endArrow=none;html=1;rounded=0;entryX=0.5;entryY=1;entryDx=0;entryDy=0;exitX=0.5;exitY=0;exitDx=0;exitDy=0;" edge="1" parent="1" source="mJlbt22K1hkp6w-ttU3_-42" target="mJlbt22K1hkp6w-ttU3_-38">
          <mxGeometry width="50" height="50" relative="1" as="geometry">
            <mxPoint x="1010" y="435" as="sourcePoint" />
            <mxPoint x="1060" y="385" as="targetPoint" />
          </mxGeometry>
        </mxCell>
        <mxCell id="mJlbt22K1hkp6w-ttU3_-50" value="" style="endArrow=none;html=1;rounded=0;entryX=0;entryY=0.5;entryDx=0;entryDy=0;exitX=0.5;exitY=0;exitDx=0;exitDy=0;" edge="1" parent="1" source="mJlbt22K1hkp6w-ttU3_-43" target="mJlbt22K1hkp6w-ttU3_-35">
          <mxGeometry width="50" height="50" relative="1" as="geometry">
            <mxPoint x="1010" y="335" as="sourcePoint" />
            <mxPoint x="1060" y="285" as="targetPoint" />
          </mxGeometry>
        </mxCell>
        <mxCell id="mJlbt22K1hkp6w-ttU3_-54" value="" style="endArrow=none;html=1;rounded=0;entryX=0;entryY=1;entryDx=0;entryDy=0;exitX=0.5;exitY=0;exitDx=0;exitDy=0;" edge="1" parent="1" source="mJlbt22K1hkp6w-ttU3_-35" target="mJlbt22K1hkp6w-ttU3_-1">
          <mxGeometry width="50" height="50" relative="1" as="geometry">
            <mxPoint x="340" y="350" as="sourcePoint" />
            <mxPoint x="390" y="300" as="targetPoint" />
          </mxGeometry>
        </mxCell>
        <mxCell id="mJlbt22K1hkp6w-ttU3_-55" value="" style="ellipse;whiteSpace=wrap;html=1;" vertex="1" parent="1">
          <mxGeometry x="1370" y="180" width="120" height="80" as="geometry" />
        </mxCell>
        <mxCell id="mJlbt22K1hkp6w-ttU3_-56" value="Gyakornok" style="ellipse;whiteSpace=wrap;html=1;" vertex="1" parent="1">
          <mxGeometry x="1375" y="185" width="110" height="70" as="geometry" />
        </mxCell>
        <mxCell id="mJlbt22K1hkp6w-ttU3_-57" value="név" style="ellipse;whiteSpace=wrap;html=1;" vertex="1" parent="1">
          <mxGeometry x="1135" y="320" width="120" height="80" as="geometry" />
        </mxCell>
        <mxCell id="mJlbt22K1hkp6w-ttU3_-58" value="gyakorlat" style="ellipse;whiteSpace=wrap;html=1;" vertex="1" parent="1">
          <mxGeometry x="1370" y="330" width="120" height="80" as="geometry" />
        </mxCell>
        <mxCell id="mJlbt22K1hkp6w-ttU3_-59" value="műszak" style="ellipse;whiteSpace=wrap;html=1;" vertex="1" parent="1">
          <mxGeometry x="1610" y="330" width="120" height="80" as="geometry" />
        </mxCell>
        <mxCell id="mJlbt22K1hkp6w-ttU3_-60" value="kezdete" style="ellipse;whiteSpace=wrap;html=1;" vertex="1" parent="1">
          <mxGeometry x="1235" y="510" width="120" height="80" as="geometry" />
        </mxCell>
        <mxCell id="mJlbt22K1hkp6w-ttU3_-61" value="időtartama" style="ellipse;whiteSpace=wrap;html=1;" vertex="1" parent="1">
          <mxGeometry x="1520" y="510" width="120" height="80" as="geometry" />
        </mxCell>
        <mxCell id="mJlbt22K1hkp6w-ttU3_-178" style="edgeStyle=orthogonalEdgeStyle;rounded=0;orthogonalLoop=1;jettySize=auto;html=1;exitX=0.5;exitY=1;exitDx=0;exitDy=0;entryX=0;entryY=1;entryDx=0;entryDy=0;dashed=1;" edge="1" parent="1" source="mJlbt22K1hkp6w-ttU3_-63" target="mJlbt22K1hkp6w-ttU3_-13">
          <mxGeometry relative="1" as="geometry">
            <Array as="points">
              <mxPoint x="1090" y="820" />
              <mxPoint x="-280" y="820" />
            </Array>
          </mxGeometry>
        </mxCell>
        <mxCell id="mJlbt22K1hkp6w-ttU3_-63" value="GYKOD" style="rhombus;whiteSpace=wrap;html=1;" vertex="1" parent="1">
          <mxGeometry x="1050" y="240" width="80" height="80" as="geometry" />
        </mxCell>
        <mxCell id="mJlbt22K1hkp6w-ttU3_-64" value="" style="endArrow=none;html=1;rounded=0;entryX=0.5;entryY=1;entryDx=0;entryDy=0;exitX=0.5;exitY=0;exitDx=0;exitDy=0;" edge="1" parent="1" source="mJlbt22K1hkp6w-ttU3_-57" target="mJlbt22K1hkp6w-ttU3_-55">
          <mxGeometry width="50" height="50" relative="1" as="geometry">
            <mxPoint x="1690" y="440" as="sourcePoint" />
            <mxPoint x="1740" y="390" as="targetPoint" />
          </mxGeometry>
        </mxCell>
        <mxCell id="mJlbt22K1hkp6w-ttU3_-65" value="" style="endArrow=none;html=1;rounded=0;exitX=0.5;exitY=0;exitDx=0;exitDy=0;" edge="1" parent="1" source="mJlbt22K1hkp6w-ttU3_-58">
          <mxGeometry width="50" height="50" relative="1" as="geometry">
            <mxPoint x="1690" y="440" as="sourcePoint" />
            <mxPoint x="1430" y="260" as="targetPoint" />
          </mxGeometry>
        </mxCell>
        <mxCell id="mJlbt22K1hkp6w-ttU3_-66" value="" style="endArrow=none;html=1;rounded=0;entryX=0.5;entryY=1;entryDx=0;entryDy=0;exitX=0.5;exitY=0;exitDx=0;exitDy=0;" edge="1" parent="1" source="mJlbt22K1hkp6w-ttU3_-59" target="mJlbt22K1hkp6w-ttU3_-55">
          <mxGeometry width="50" height="50" relative="1" as="geometry">
            <mxPoint x="1690" y="440" as="sourcePoint" />
            <mxPoint x="1740" y="390" as="targetPoint" />
          </mxGeometry>
        </mxCell>
        <mxCell id="mJlbt22K1hkp6w-ttU3_-67" value="" style="endArrow=none;html=1;rounded=0;exitX=0.5;exitY=1;exitDx=0;exitDy=0;entryX=0.5;entryY=0;entryDx=0;entryDy=0;" edge="1" parent="1" source="mJlbt22K1hkp6w-ttU3_-58" target="mJlbt22K1hkp6w-ttU3_-60">
          <mxGeometry width="50" height="50" relative="1" as="geometry">
            <mxPoint x="1690" y="440" as="sourcePoint" />
            <mxPoint x="1740" y="390" as="targetPoint" />
          </mxGeometry>
        </mxCell>
        <mxCell id="mJlbt22K1hkp6w-ttU3_-68" value="" style="endArrow=none;html=1;rounded=0;entryX=0.5;entryY=1;entryDx=0;entryDy=0;exitX=0.5;exitY=0;exitDx=0;exitDy=0;" edge="1" parent="1" source="mJlbt22K1hkp6w-ttU3_-61" target="mJlbt22K1hkp6w-ttU3_-58">
          <mxGeometry width="50" height="50" relative="1" as="geometry">
            <mxPoint x="1690" y="440" as="sourcePoint" />
            <mxPoint x="1740" y="390" as="targetPoint" />
          </mxGeometry>
        </mxCell>
        <mxCell id="mJlbt22K1hkp6w-ttU3_-70" value="" style="endArrow=none;html=1;rounded=0;entryX=0;entryY=0.5;entryDx=0;entryDy=0;exitX=0.5;exitY=0;exitDx=0;exitDy=0;" edge="1" parent="1" source="mJlbt22K1hkp6w-ttU3_-63" target="mJlbt22K1hkp6w-ttU3_-55">
          <mxGeometry width="50" height="50" relative="1" as="geometry">
            <mxPoint x="1690" y="340" as="sourcePoint" />
            <mxPoint x="1740" y="290" as="targetPoint" />
          </mxGeometry>
        </mxCell>
        <mxCell id="mJlbt22K1hkp6w-ttU3_-71" value="" style="endArrow=none;html=1;rounded=0;entryX=0.5;entryY=1;entryDx=0;entryDy=0;exitX=0.5;exitY=0;exitDx=0;exitDy=0;" edge="1" parent="1" source="mJlbt22K1hkp6w-ttU3_-55" target="mJlbt22K1hkp6w-ttU3_-1">
          <mxGeometry width="50" height="50" relative="1" as="geometry">
            <mxPoint x="790" y="340" as="sourcePoint" />
            <mxPoint x="840" y="290" as="targetPoint" />
          </mxGeometry>
        </mxCell>
        <mxCell id="mJlbt22K1hkp6w-ttU3_-72" value="" style="ellipse;whiteSpace=wrap;html=1;" vertex="1" parent="1">
          <mxGeometry x="1970" y="190" width="120" height="80" as="geometry" />
        </mxCell>
        <mxCell id="mJlbt22K1hkp6w-ttU3_-73" value="Szakács" style="ellipse;whiteSpace=wrap;html=1;" vertex="1" parent="1">
          <mxGeometry x="1975" y="195" width="110" height="70" as="geometry" />
        </mxCell>
        <mxCell id="mJlbt22K1hkp6w-ttU3_-181" style="edgeStyle=orthogonalEdgeStyle;rounded=0;orthogonalLoop=1;jettySize=auto;html=1;exitX=0.5;exitY=1;exitDx=0;exitDy=0;dashed=1;entryX=0;entryY=0.5;entryDx=0;entryDy=0;" edge="1" parent="1" source="mJlbt22K1hkp6w-ttU3_-74" target="mJlbt22K1hkp6w-ttU3_-13">
          <mxGeometry relative="1" as="geometry">
            <mxPoint x="1759.9799999999996" y="334.9999999999999" as="sourcePoint" />
            <mxPoint x="-259.97652173913025" y="339.9565217391304" as="targetPoint" />
            <Array as="points">
              <mxPoint x="1760" y="840" />
              <mxPoint x="-300" y="840" />
            </Array>
          </mxGeometry>
        </mxCell>
        <mxCell id="mJlbt22K1hkp6w-ttU3_-74" value="SZKOD" style="rhombus;whiteSpace=wrap;html=1;" vertex="1" parent="1">
          <mxGeometry x="1720" y="245" width="80" height="80" as="geometry" />
        </mxCell>
        <mxCell id="mJlbt22K1hkp6w-ttU3_-75" value="név" style="ellipse;whiteSpace=wrap;html=1;" vertex="1" parent="1">
          <mxGeometry x="1780" y="330" width="120" height="80" as="geometry" />
        </mxCell>
        <mxCell id="mJlbt22K1hkp6w-ttU3_-76" value="reszleg" style="ellipse;whiteSpace=wrap;html=1;" vertex="1" parent="1">
          <mxGeometry x="1970" y="330" width="120" height="80" as="geometry" />
        </mxCell>
        <mxCell id="mJlbt22K1hkp6w-ttU3_-77" value="vegzettseg" style="ellipse;whiteSpace=wrap;html=1;" vertex="1" parent="1">
          <mxGeometry x="2160" y="330" width="120" height="80" as="geometry" />
        </mxCell>
        <mxCell id="mJlbt22K1hkp6w-ttU3_-78" value="" style="endArrow=none;html=1;rounded=0;entryX=1;entryY=1;entryDx=0;entryDy=0;exitX=0.5;exitY=0;exitDx=0;exitDy=0;" edge="1" parent="1" source="mJlbt22K1hkp6w-ttU3_-72" target="mJlbt22K1hkp6w-ttU3_-1">
          <mxGeometry width="50" height="50" relative="1" as="geometry">
            <mxPoint x="1290" y="300" as="sourcePoint" />
            <mxPoint x="1340" y="250" as="targetPoint" />
          </mxGeometry>
        </mxCell>
        <mxCell id="mJlbt22K1hkp6w-ttU3_-79" value="" style="endArrow=none;html=1;rounded=0;entryX=0;entryY=0.5;entryDx=0;entryDy=0;exitX=0.5;exitY=0;exitDx=0;exitDy=0;" edge="1" parent="1" source="mJlbt22K1hkp6w-ttU3_-74" target="mJlbt22K1hkp6w-ttU3_-72">
          <mxGeometry width="50" height="50" relative="1" as="geometry">
            <mxPoint x="1930" y="180" as="sourcePoint" />
            <mxPoint x="1980" y="130" as="targetPoint" />
          </mxGeometry>
        </mxCell>
        <mxCell id="mJlbt22K1hkp6w-ttU3_-80" value="" style="endArrow=none;html=1;rounded=0;entryX=0.5;entryY=1;entryDx=0;entryDy=0;exitX=0.5;exitY=0;exitDx=0;exitDy=0;" edge="1" parent="1" source="mJlbt22K1hkp6w-ttU3_-75" target="mJlbt22K1hkp6w-ttU3_-72">
          <mxGeometry width="50" height="50" relative="1" as="geometry">
            <mxPoint x="1930" y="180" as="sourcePoint" />
            <mxPoint x="1980" y="130" as="targetPoint" />
          </mxGeometry>
        </mxCell>
        <mxCell id="mJlbt22K1hkp6w-ttU3_-81" value="" style="endArrow=none;html=1;rounded=0;entryX=0.5;entryY=1;entryDx=0;entryDy=0;exitX=0.5;exitY=0;exitDx=0;exitDy=0;" edge="1" parent="1" source="mJlbt22K1hkp6w-ttU3_-76" target="mJlbt22K1hkp6w-ttU3_-72">
          <mxGeometry width="50" height="50" relative="1" as="geometry">
            <mxPoint x="1930" y="180" as="sourcePoint" />
            <mxPoint x="1980" y="130" as="targetPoint" />
          </mxGeometry>
        </mxCell>
        <mxCell id="mJlbt22K1hkp6w-ttU3_-82" value="" style="endArrow=none;html=1;rounded=0;entryX=0.5;entryY=1;entryDx=0;entryDy=0;exitX=0.5;exitY=0;exitDx=0;exitDy=0;" edge="1" parent="1" source="mJlbt22K1hkp6w-ttU3_-77" target="mJlbt22K1hkp6w-ttU3_-72">
          <mxGeometry width="50" height="50" relative="1" as="geometry">
            <mxPoint x="1930" y="180" as="sourcePoint" />
            <mxPoint x="1980" y="130" as="targetPoint" />
          </mxGeometry>
        </mxCell>
        <mxCell id="mJlbt22K1hkp6w-ttU3_-92" value="" style="ellipse;whiteSpace=wrap;html=1;" vertex="1" parent="1">
          <mxGeometry x="2610" y="190" width="120" height="80" as="geometry" />
        </mxCell>
        <mxCell id="mJlbt22K1hkp6w-ttU3_-93" value="Főszakács" style="ellipse;whiteSpace=wrap;html=1;" vertex="1" parent="1">
          <mxGeometry x="2615" y="195" width="110" height="70" as="geometry" />
        </mxCell>
        <mxCell id="mJlbt22K1hkp6w-ttU3_-94" value="FKOD" style="rhombus;whiteSpace=wrap;html=1;" vertex="1" parent="1">
          <mxGeometry x="2360" y="245" width="80" height="80" as="geometry" />
        </mxCell>
        <mxCell id="mJlbt22K1hkp6w-ttU3_-95" value="név" style="ellipse;whiteSpace=wrap;html=1;" vertex="1" parent="1">
          <mxGeometry x="2420" y="330" width="120" height="80" as="geometry" />
        </mxCell>
        <mxCell id="mJlbt22K1hkp6w-ttU3_-96" value="életkor" style="ellipse;whiteSpace=wrap;html=1;" vertex="1" parent="1">
          <mxGeometry x="2610" y="325" width="120" height="80" as="geometry" />
        </mxCell>
        <mxCell id="mJlbt22K1hkp6w-ttU3_-97" value="vegzettseg" style="ellipse;whiteSpace=wrap;html=1;" vertex="1" parent="1">
          <mxGeometry x="2800" y="330" width="120" height="80" as="geometry" />
        </mxCell>
        <mxCell id="mJlbt22K1hkp6w-ttU3_-98" value="" style="endArrow=none;html=1;rounded=0;entryX=0;entryY=0.5;entryDx=0;entryDy=0;exitX=0.5;exitY=0;exitDx=0;exitDy=0;" edge="1" parent="1" source="mJlbt22K1hkp6w-ttU3_-94" target="mJlbt22K1hkp6w-ttU3_-92">
          <mxGeometry width="50" height="50" relative="1" as="geometry">
            <mxPoint x="2570" y="180" as="sourcePoint" />
            <mxPoint x="2620" y="130" as="targetPoint" />
          </mxGeometry>
        </mxCell>
        <mxCell id="mJlbt22K1hkp6w-ttU3_-99" value="" style="endArrow=none;html=1;rounded=0;entryX=0.5;entryY=1;entryDx=0;entryDy=0;exitX=0.5;exitY=0;exitDx=0;exitDy=0;" edge="1" parent="1" source="mJlbt22K1hkp6w-ttU3_-95" target="mJlbt22K1hkp6w-ttU3_-92">
          <mxGeometry width="50" height="50" relative="1" as="geometry">
            <mxPoint x="2570" y="180" as="sourcePoint" />
            <mxPoint x="2620" y="130" as="targetPoint" />
          </mxGeometry>
        </mxCell>
        <mxCell id="mJlbt22K1hkp6w-ttU3_-100" value="" style="endArrow=none;html=1;rounded=0;entryX=0.5;entryY=1;entryDx=0;entryDy=0;exitX=0.5;exitY=0;exitDx=0;exitDy=0;" edge="1" parent="1" source="mJlbt22K1hkp6w-ttU3_-96" target="mJlbt22K1hkp6w-ttU3_-92">
          <mxGeometry width="50" height="50" relative="1" as="geometry">
            <mxPoint x="2570" y="180" as="sourcePoint" />
            <mxPoint x="2620" y="130" as="targetPoint" />
          </mxGeometry>
        </mxCell>
        <mxCell id="mJlbt22K1hkp6w-ttU3_-101" value="" style="endArrow=none;html=1;rounded=0;entryX=0.5;entryY=1;entryDx=0;entryDy=0;exitX=0.5;exitY=0;exitDx=0;exitDy=0;" edge="1" parent="1" source="mJlbt22K1hkp6w-ttU3_-97" target="mJlbt22K1hkp6w-ttU3_-92">
          <mxGeometry width="50" height="50" relative="1" as="geometry">
            <mxPoint x="2570" y="180" as="sourcePoint" />
            <mxPoint x="2620" y="130" as="targetPoint" />
          </mxGeometry>
        </mxCell>
        <mxCell id="mJlbt22K1hkp6w-ttU3_-102" value="" style="endArrow=none;html=1;rounded=0;entryX=1;entryY=0.5;entryDx=0;entryDy=0;exitX=0.5;exitY=0;exitDx=0;exitDy=0;" edge="1" parent="1" source="mJlbt22K1hkp6w-ttU3_-92" target="mJlbt22K1hkp6w-ttU3_-1">
          <mxGeometry width="50" height="50" relative="1" as="geometry">
            <mxPoint x="2340" y="430" as="sourcePoint" />
            <mxPoint x="2390" y="380" as="targetPoint" />
          </mxGeometry>
        </mxCell>
        <mxCell id="mJlbt22K1hkp6w-ttU3_-103" value="" style="rounded=0;whiteSpace=wrap;html=1;rotation=90;" vertex="1" parent="1">
          <mxGeometry x="1255" y="660" width="80" height="50" as="geometry" />
        </mxCell>
        <mxCell id="mJlbt22K1hkp6w-ttU3_-104" value="" style="endArrow=none;html=1;rounded=0;entryX=0.5;entryY=1;entryDx=0;entryDy=0;exitX=0;exitY=0.5;exitDx=0;exitDy=0;" edge="1" parent="1" source="mJlbt22K1hkp6w-ttU3_-103" target="mJlbt22K1hkp6w-ttU3_-60">
          <mxGeometry width="50" height="50" relative="1" as="geometry">
            <mxPoint x="1410" y="820" as="sourcePoint" />
            <mxPoint x="1460" y="770" as="targetPoint" />
          </mxGeometry>
        </mxCell>
        <mxCell id="mJlbt22K1hkp6w-ttU3_-105" value="" style="rounded=0;whiteSpace=wrap;html=1;rotation=90;" vertex="1" parent="1">
          <mxGeometry x="1540" y="660" width="80" height="50" as="geometry" />
        </mxCell>
        <mxCell id="mJlbt22K1hkp6w-ttU3_-106" value="" style="endArrow=none;html=1;rounded=0;entryX=0.5;entryY=1;entryDx=0;entryDy=0;exitX=0;exitY=0.5;exitDx=0;exitDy=0;" edge="1" parent="1">
          <mxGeometry width="50" height="50" relative="1" as="geometry">
            <mxPoint x="1579.74" y="645" as="sourcePoint" />
            <mxPoint x="1579.74" y="590" as="targetPoint" />
          </mxGeometry>
        </mxCell>
        <mxCell id="mJlbt22K1hkp6w-ttU3_-107" value="" style="rounded=0;whiteSpace=wrap;html=1;rotation=90;" vertex="1" parent="1">
          <mxGeometry x="575" y="655" width="80" height="50" as="geometry" />
        </mxCell>
        <mxCell id="mJlbt22K1hkp6w-ttU3_-108" value="" style="endArrow=none;html=1;rounded=0;entryX=0.5;entryY=1;entryDx=0;entryDy=0;exitX=0;exitY=0.5;exitDx=0;exitDy=0;" edge="1" parent="1">
          <mxGeometry width="50" height="50" relative="1" as="geometry">
            <mxPoint x="614.74" y="640" as="sourcePoint" />
            <mxPoint x="614.74" y="585" as="targetPoint" />
          </mxGeometry>
        </mxCell>
        <mxCell id="mJlbt22K1hkp6w-ttU3_-109" value="" style="rounded=0;whiteSpace=wrap;html=1;rotation=90;" vertex="1" parent="1">
          <mxGeometry x="710" y="655" width="80" height="50" as="geometry" />
        </mxCell>
        <mxCell id="mJlbt22K1hkp6w-ttU3_-110" value="" style="endArrow=none;html=1;rounded=0;entryX=0.5;entryY=1;entryDx=0;entryDy=0;exitX=0;exitY=0.5;exitDx=0;exitDy=0;" edge="1" parent="1">
          <mxGeometry width="50" height="50" relative="1" as="geometry">
            <mxPoint x="749.74" y="640" as="sourcePoint" />
            <mxPoint x="749.74" y="585" as="targetPoint" />
          </mxGeometry>
        </mxCell>
        <mxCell id="mJlbt22K1hkp6w-ttU3_-111" value="" style="rounded=0;whiteSpace=wrap;html=1;rotation=90;" vertex="1" parent="1">
          <mxGeometry x="845" y="655" width="80" height="50" as="geometry" />
        </mxCell>
        <mxCell id="mJlbt22K1hkp6w-ttU3_-112" value="" style="endArrow=none;html=1;rounded=0;entryX=0.5;entryY=1;entryDx=0;entryDy=0;exitX=0;exitY=0.5;exitDx=0;exitDy=0;" edge="1" parent="1">
          <mxGeometry width="50" height="50" relative="1" as="geometry">
            <mxPoint x="884.74" y="640" as="sourcePoint" />
            <mxPoint x="884.74" y="585" as="targetPoint" />
          </mxGeometry>
        </mxCell>
        <mxCell id="mJlbt22K1hkp6w-ttU3_-115" value="" style="rounded=0;whiteSpace=wrap;html=1;rotation=90;" vertex="1" parent="1">
          <mxGeometry x="175" y="670" width="80" height="50" as="geometry" />
        </mxCell>
        <mxCell id="mJlbt22K1hkp6w-ttU3_-116" value="" style="endArrow=none;html=1;rounded=0;entryX=0.5;entryY=1;entryDx=0;entryDy=0;exitX=0;exitY=0.5;exitDx=0;exitDy=0;" edge="1" parent="1">
          <mxGeometry width="50" height="50" relative="1" as="geometry">
            <mxPoint x="214.74" y="655" as="sourcePoint" />
            <mxPoint x="214.74" y="600" as="targetPoint" />
          </mxGeometry>
        </mxCell>
        <mxCell id="mJlbt22K1hkp6w-ttU3_-117" value="" style="rounded=0;whiteSpace=wrap;html=1;rotation=90;" vertex="1" parent="1">
          <mxGeometry x="40" y="670" width="80" height="50" as="geometry" />
        </mxCell>
        <mxCell id="mJlbt22K1hkp6w-ttU3_-118" value="" style="endArrow=none;html=1;rounded=0;entryX=0.5;entryY=1;entryDx=0;entryDy=0;exitX=0;exitY=0.5;exitDx=0;exitDy=0;" edge="1" parent="1">
          <mxGeometry width="50" height="50" relative="1" as="geometry">
            <mxPoint x="79.74000000000001" y="655" as="sourcePoint" />
            <mxPoint x="79.74000000000001" y="600" as="targetPoint" />
          </mxGeometry>
        </mxCell>
        <mxCell id="mJlbt22K1hkp6w-ttU3_-119" value="" style="rounded=0;whiteSpace=wrap;html=1;rotation=90;" vertex="1" parent="1">
          <mxGeometry x="-95" y="670" width="80" height="50" as="geometry" />
        </mxCell>
        <mxCell id="mJlbt22K1hkp6w-ttU3_-120" value="" style="endArrow=none;html=1;rounded=0;entryX=0.5;entryY=1;entryDx=0;entryDy=0;exitX=0;exitY=0.5;exitDx=0;exitDy=0;" edge="1" parent="1">
          <mxGeometry width="50" height="50" relative="1" as="geometry">
            <mxPoint x="-55.25999999999999" y="655" as="sourcePoint" />
            <mxPoint x="-55.25999999999999" y="600" as="targetPoint" />
          </mxGeometry>
        </mxCell>
        <mxCell id="mJlbt22K1hkp6w-ttU3_-126" value="" style="rounded=0;whiteSpace=wrap;html=1;rotation=90;" vertex="1" parent="1">
          <mxGeometry x="490" y="465" width="80" height="50" as="geometry" />
        </mxCell>
        <mxCell id="mJlbt22K1hkp6w-ttU3_-127" value="" style="endArrow=none;html=1;rounded=0;entryX=0.5;entryY=1;entryDx=0;entryDy=0;exitX=0;exitY=0.5;exitDx=0;exitDy=0;" edge="1" parent="1">
          <mxGeometry width="50" height="50" relative="1" as="geometry">
            <mxPoint x="529.74" y="450" as="sourcePoint" />
            <mxPoint x="529.74" y="395" as="targetPoint" />
          </mxGeometry>
        </mxCell>
        <mxCell id="mJlbt22K1hkp6w-ttU3_-128" value="" style="rounded=0;whiteSpace=wrap;html=1;rotation=90;" vertex="1" parent="1">
          <mxGeometry x="940" y="460" width="80" height="50" as="geometry" />
        </mxCell>
        <mxCell id="mJlbt22K1hkp6w-ttU3_-129" value="" style="endArrow=none;html=1;rounded=0;entryX=0.5;entryY=1;entryDx=0;entryDy=0;exitX=0;exitY=0.5;exitDx=0;exitDy=0;" edge="1" parent="1">
          <mxGeometry width="50" height="50" relative="1" as="geometry">
            <mxPoint x="979.74" y="445" as="sourcePoint" />
            <mxPoint x="979.74" y="390" as="targetPoint" />
          </mxGeometry>
        </mxCell>
        <mxCell id="mJlbt22K1hkp6w-ttU3_-134" value="" style="rounded=0;whiteSpace=wrap;html=1;rotation=90;" vertex="1" parent="1">
          <mxGeometry x="295" y="490" width="80" height="50" as="geometry" />
        </mxCell>
        <mxCell id="mJlbt22K1hkp6w-ttU3_-135" value="" style="endArrow=none;html=1;rounded=0;entryX=0.5;entryY=1;entryDx=0;entryDy=0;exitX=0;exitY=0.5;exitDx=0;exitDy=0;" edge="1" parent="1">
          <mxGeometry width="50" height="50" relative="1" as="geometry">
            <mxPoint x="334.74" y="475" as="sourcePoint" />
            <mxPoint x="334.74" y="420" as="targetPoint" />
          </mxGeometry>
        </mxCell>
        <mxCell id="mJlbt22K1hkp6w-ttU3_-136" value="" style="rounded=0;whiteSpace=wrap;html=1;rotation=90;" vertex="1" parent="1">
          <mxGeometry x="-215" y="490" width="80" height="50" as="geometry" />
        </mxCell>
        <mxCell id="mJlbt22K1hkp6w-ttU3_-137" value="" style="endArrow=none;html=1;rounded=0;entryX=0.5;entryY=1;entryDx=0;entryDy=0;exitX=0;exitY=0.5;exitDx=0;exitDy=0;" edge="1" parent="1">
          <mxGeometry width="50" height="50" relative="1" as="geometry">
            <mxPoint x="-175.26" y="475" as="sourcePoint" />
            <mxPoint x="-175.26" y="420" as="targetPoint" />
          </mxGeometry>
        </mxCell>
        <mxCell id="mJlbt22K1hkp6w-ttU3_-138" value="" style="ellipse;whiteSpace=wrap;html=1;" vertex="1" parent="1">
          <mxGeometry x="3250" y="195" width="120" height="80" as="geometry" />
        </mxCell>
        <mxCell id="mJlbt22K1hkp6w-ttU3_-139" value="Rendelés" style="ellipse;whiteSpace=wrap;html=1;" vertex="1" parent="1">
          <mxGeometry x="3255" y="200" width="110" height="70" as="geometry" />
        </mxCell>
        <mxCell id="mJlbt22K1hkp6w-ttU3_-141" value="összeg" style="ellipse;whiteSpace=wrap;html=1;" vertex="1" parent="1">
          <mxGeometry x="3060" y="335" width="120" height="80" as="geometry" />
        </mxCell>
        <mxCell id="mJlbt22K1hkp6w-ttU3_-142" value="étel" style="ellipse;whiteSpace=wrap;html=1;" vertex="1" parent="1">
          <mxGeometry x="3430" y="335" width="120" height="80" as="geometry" />
        </mxCell>
        <mxCell id="mJlbt22K1hkp6w-ttU3_-145" value="" style="endArrow=none;html=1;rounded=0;entryX=0.5;entryY=1;entryDx=0;entryDy=0;exitX=0.5;exitY=0;exitDx=0;exitDy=0;" edge="1" parent="1" source="mJlbt22K1hkp6w-ttU3_-141" target="mJlbt22K1hkp6w-ttU3_-138">
          <mxGeometry width="50" height="50" relative="1" as="geometry">
            <mxPoint x="3210" y="185" as="sourcePoint" />
            <mxPoint x="3260" y="135" as="targetPoint" />
          </mxGeometry>
        </mxCell>
        <mxCell id="mJlbt22K1hkp6w-ttU3_-146" value="" style="endArrow=none;html=1;rounded=0;entryX=0.5;entryY=1;entryDx=0;entryDy=0;exitX=0.5;exitY=0;exitDx=0;exitDy=0;" edge="1" parent="1" source="mJlbt22K1hkp6w-ttU3_-142" target="mJlbt22K1hkp6w-ttU3_-138">
          <mxGeometry width="50" height="50" relative="1" as="geometry">
            <mxPoint x="3210" y="185" as="sourcePoint" />
            <mxPoint x="3260" y="135" as="targetPoint" />
          </mxGeometry>
        </mxCell>
        <mxCell id="mJlbt22K1hkp6w-ttU3_-148" value="" style="endArrow=none;html=1;rounded=0;entryX=1;entryY=0.5;entryDx=0;entryDy=0;exitX=0.5;exitY=0;exitDx=0;exitDy=0;" edge="1" parent="1" source="mJlbt22K1hkp6w-ttU3_-138" target="mJlbt22K1hkp6w-ttU3_-1">
          <mxGeometry width="50" height="50" relative="1" as="geometry">
            <mxPoint x="1740" y="250" as="sourcePoint" />
            <mxPoint x="1790" y="200" as="targetPoint" />
          </mxGeometry>
        </mxCell>
        <mxCell id="mJlbt22K1hkp6w-ttU3_-149" value="" style="rounded=0;whiteSpace=wrap;html=1;rotation=90;" vertex="1" parent="1">
          <mxGeometry x="1155" y="470" width="80" height="50" as="geometry" />
        </mxCell>
        <mxCell id="mJlbt22K1hkp6w-ttU3_-150" value="" style="endArrow=none;html=1;rounded=0;entryX=0.5;entryY=1;entryDx=0;entryDy=0;exitX=0;exitY=0.5;exitDx=0;exitDy=0;" edge="1" parent="1">
          <mxGeometry width="50" height="50" relative="1" as="geometry">
            <mxPoint x="1194.74" y="455" as="sourcePoint" />
            <mxPoint x="1194.74" y="400" as="targetPoint" />
          </mxGeometry>
        </mxCell>
        <mxCell id="mJlbt22K1hkp6w-ttU3_-151" value="" style="rounded=0;whiteSpace=wrap;html=1;rotation=90;" vertex="1" parent="1">
          <mxGeometry x="1640" y="480" width="80" height="50" as="geometry" />
        </mxCell>
        <mxCell id="mJlbt22K1hkp6w-ttU3_-152" value="" style="endArrow=none;html=1;rounded=0;entryX=0.5;entryY=1;entryDx=0;entryDy=0;exitX=0;exitY=0.5;exitDx=0;exitDy=0;" edge="1" parent="1">
          <mxGeometry width="50" height="50" relative="1" as="geometry">
            <mxPoint x="1679.74" y="465" as="sourcePoint" />
            <mxPoint x="1679.74" y="410" as="targetPoint" />
          </mxGeometry>
        </mxCell>
        <mxCell id="mJlbt22K1hkp6w-ttU3_-155" value="" style="rounded=0;whiteSpace=wrap;html=1;rotation=90;" vertex="1" parent="1">
          <mxGeometry x="1800" y="480" width="80" height="50" as="geometry" />
        </mxCell>
        <mxCell id="mJlbt22K1hkp6w-ttU3_-156" value="" style="endArrow=none;html=1;rounded=0;entryX=0.5;entryY=1;entryDx=0;entryDy=0;exitX=0;exitY=0.5;exitDx=0;exitDy=0;" edge="1" parent="1">
          <mxGeometry width="50" height="50" relative="1" as="geometry">
            <mxPoint x="1839.74" y="465" as="sourcePoint" />
            <mxPoint x="1839.74" y="410" as="targetPoint" />
          </mxGeometry>
        </mxCell>
        <mxCell id="mJlbt22K1hkp6w-ttU3_-159" value="" style="rounded=0;whiteSpace=wrap;html=1;rotation=90;" vertex="1" parent="1">
          <mxGeometry x="1990" y="480" width="80" height="50" as="geometry" />
        </mxCell>
        <mxCell id="mJlbt22K1hkp6w-ttU3_-160" value="" style="endArrow=none;html=1;rounded=0;entryX=0.5;entryY=1;entryDx=0;entryDy=0;exitX=0;exitY=0.5;exitDx=0;exitDy=0;" edge="1" parent="1">
          <mxGeometry width="50" height="50" relative="1" as="geometry">
            <mxPoint x="2029.74" y="465" as="sourcePoint" />
            <mxPoint x="2029.74" y="410" as="targetPoint" />
          </mxGeometry>
        </mxCell>
        <mxCell id="mJlbt22K1hkp6w-ttU3_-161" value="" style="rounded=0;whiteSpace=wrap;html=1;rotation=90;" vertex="1" parent="1">
          <mxGeometry x="2180" y="480" width="80" height="50" as="geometry" />
        </mxCell>
        <mxCell id="mJlbt22K1hkp6w-ttU3_-162" value="" style="endArrow=none;html=1;rounded=0;entryX=0.5;entryY=1;entryDx=0;entryDy=0;exitX=0;exitY=0.5;exitDx=0;exitDy=0;" edge="1" parent="1">
          <mxGeometry width="50" height="50" relative="1" as="geometry">
            <mxPoint x="2219.74" y="465" as="sourcePoint" />
            <mxPoint x="2219.74" y="410" as="targetPoint" />
          </mxGeometry>
        </mxCell>
        <mxCell id="mJlbt22K1hkp6w-ttU3_-163" value="" style="rounded=0;whiteSpace=wrap;html=1;rotation=90;" vertex="1" parent="1">
          <mxGeometry x="2440" y="480" width="80" height="50" as="geometry" />
        </mxCell>
        <mxCell id="mJlbt22K1hkp6w-ttU3_-164" value="" style="endArrow=none;html=1;rounded=0;entryX=0.5;entryY=1;entryDx=0;entryDy=0;exitX=0;exitY=0.5;exitDx=0;exitDy=0;" edge="1" parent="1">
          <mxGeometry width="50" height="50" relative="1" as="geometry">
            <mxPoint x="2479.74" y="465" as="sourcePoint" />
            <mxPoint x="2479.74" y="410" as="targetPoint" />
          </mxGeometry>
        </mxCell>
        <mxCell id="mJlbt22K1hkp6w-ttU3_-165" value="" style="rounded=0;whiteSpace=wrap;html=1;rotation=90;" vertex="1" parent="1">
          <mxGeometry x="2630" y="475" width="80" height="50" as="geometry" />
        </mxCell>
        <mxCell id="mJlbt22K1hkp6w-ttU3_-166" value="" style="endArrow=none;html=1;rounded=0;entryX=0.5;entryY=1;entryDx=0;entryDy=0;exitX=0;exitY=0.5;exitDx=0;exitDy=0;" edge="1" parent="1">
          <mxGeometry width="50" height="50" relative="1" as="geometry">
            <mxPoint x="2669.74" y="460" as="sourcePoint" />
            <mxPoint x="2669.74" y="405" as="targetPoint" />
          </mxGeometry>
        </mxCell>
        <mxCell id="mJlbt22K1hkp6w-ttU3_-167" value="" style="rounded=0;whiteSpace=wrap;html=1;rotation=90;" vertex="1" parent="1">
          <mxGeometry x="2820" y="480" width="80" height="50" as="geometry" />
        </mxCell>
        <mxCell id="mJlbt22K1hkp6w-ttU3_-168" value="" style="endArrow=none;html=1;rounded=0;entryX=0.5;entryY=1;entryDx=0;entryDy=0;exitX=0;exitY=0.5;exitDx=0;exitDy=0;" edge="1" parent="1">
          <mxGeometry width="50" height="50" relative="1" as="geometry">
            <mxPoint x="2859.74" y="465" as="sourcePoint" />
            <mxPoint x="2859.74" y="410" as="targetPoint" />
          </mxGeometry>
        </mxCell>
        <mxCell id="mJlbt22K1hkp6w-ttU3_-171" value="" style="rounded=0;whiteSpace=wrap;html=1;rotation=90;" vertex="1" parent="1">
          <mxGeometry x="3080" y="485" width="80" height="50" as="geometry" />
        </mxCell>
        <mxCell id="mJlbt22K1hkp6w-ttU3_-172" value="" style="endArrow=none;html=1;rounded=0;entryX=0.5;entryY=1;entryDx=0;entryDy=0;exitX=0;exitY=0.5;exitDx=0;exitDy=0;" edge="1" parent="1">
          <mxGeometry width="50" height="50" relative="1" as="geometry">
            <mxPoint x="3119.74" y="470" as="sourcePoint" />
            <mxPoint x="3119.74" y="415" as="targetPoint" />
          </mxGeometry>
        </mxCell>
        <mxCell id="mJlbt22K1hkp6w-ttU3_-173" value="" style="rounded=0;whiteSpace=wrap;html=1;rotation=90;" vertex="1" parent="1">
          <mxGeometry x="3450" y="485" width="80" height="50" as="geometry" />
        </mxCell>
        <mxCell id="mJlbt22K1hkp6w-ttU3_-174" value="" style="endArrow=none;html=1;rounded=0;entryX=0.5;entryY=1;entryDx=0;entryDy=0;exitX=0;exitY=0.5;exitDx=0;exitDy=0;" edge="1" parent="1">
          <mxGeometry width="50" height="50" relative="1" as="geometry">
            <mxPoint x="3489.74" y="470" as="sourcePoint" />
            <mxPoint x="3489.74" y="415" as="targetPoint" />
          </mxGeometry>
        </mxCell>
      </root>
    </mxGraphModel>
  </diagram>
</mxfile>
